<?xml version="1.0" encoding="UTF-8"?>
<!-- Generator: visioncortex VTracer 0.6.3 -->
<svg version="1.1" xmlns="http://www.w3.org/2000/svg" width="1280" height="1280">
<path d="M0 0 C299.64 0 599.28 0 908 0 C908 0.66 908 1.32 908 2 C908.86 2.04 909.71 2.07 910.6 2.11 C917.13 2.49 922.02 3.23 928 6 C929.83 6.37 931.66 6.7 933.5 7 C938.14 7.76 941.74 9.04 946 11 C947.26 11.35 948.52 11.7 949.81 12.06 C953 13 953 13 955 15 C956.73 15.5 956.73 15.5 958.5 16 C962 17 962 17 964 19 C965.18 19.31 966.35 19.62 967.56 19.94 C968.7 20.29 969.83 20.64 971 21 C971.33 21.99 971.66 22.98 972 24 C975.46 24.49 975.46 24.49 979 25 C979.33 25.99 979.66 26.98 980 28 C980.73 28.11 981.47 28.21 982.22 28.32 C985.21 29.05 986.95 30.09 989.44 31.88 C992.09 33.73 994.51 35.25 997.44 36.69 C1000 38 1000 38 1002 41 C1004.05 42.19 1004.05 42.19 1006 43 C1006 43.66 1006 44.32 1006 45 C1006.71 45.24 1007.42 45.48 1008.16 45.73 C1011.42 47.19 1013.76 49.02 1016.5 51.31 C1017.42 52.07 1018.34 52.83 1019.28 53.61 C1021.98 55.98 1024.56 58.36 1027 61 C1027 61.66 1027 62.32 1027 63 C1028.32 63.66 1029.64 64.32 1031 65 C1031 65.66 1031 66.32 1031 67 C1031.59 67.26 1032.18 67.51 1032.79 67.78 C1039.36 71.41 1044.83 79.88 1049 86 C1049 86.66 1049 87.32 1049 88 C1049.99 88.33 1050.98 88.66 1052 89 C1053.04 90.64 1054.03 92.31 1055 94 C1055.95 95.26 1056.91 96.51 1057.88 97.75 C1066 108.45 1066 108.45 1066 114 C1066.99 114.33 1067.98 114.66 1069 115 C1069.33 117.31 1069.66 119.62 1070 122 C1070.99 122.33 1071.98 122.66 1073 123 C1073.88 124.74 1073.88 124.74 1074.56 126.88 C1075.49 129.71 1076.3 131.45 1078 134 C1078.67 136.33 1079.34 138.67 1080 141 C1081.43 144.47 1082.94 147.87 1084.56 151.25 C1086.29 155.2 1086.85 159.3 1087.47 163.55 C1087.89 166.24 1087.89 166.24 1090 169 C1090.41 170.9 1090.41 170.9 1090.63 173.01 C1090.72 173.77 1090.8 174.53 1090.89 175.31 C1091 176.49 1091 176.49 1091.12 177.69 C1091.21 178.48 1091.3 179.28 1091.39 180.1 C1091.6 182.07 1091.8 184.03 1092 186 C1092.66 186 1093.32 186 1094 186 C1094 485.64 1094 785.28 1094 1094 C1093.34 1094 1092.68 1094 1092 1094 C1091.88 1095.19 1091.76 1096.38 1091.63 1097.61 C1091.46 1099.18 1091.29 1100.75 1091.12 1102.31 C1091.01 1103.49 1091.01 1103.49 1090.89 1104.69 C1090.76 1105.83 1090.76 1105.83 1090.63 1106.99 C1090.52 1108.03 1090.52 1108.03 1090.41 1109.1 C1090 1111 1090 1111 1088 1114 C1087.46 1116.03 1086.99 1118.07 1086.56 1120.12 C1084.88 1127.74 1083.04 1134.32 1079 1141 C1078.33 1143.33 1077.66 1145.67 1077 1148 C1076.34 1148.66 1075.68 1149.32 1075 1150 C1074.11 1151.96 1074.11 1151.96 1073.38 1154.12 C1073.11 1154.85 1072.85 1155.57 1072.59 1156.32 C1072.39 1156.87 1072.2 1157.43 1072 1158 C1071.34 1158 1070.68 1158 1070 1158 C1069.67 1160.31 1069.34 1162.62 1069 1165 C1068.01 1165.33 1067.02 1165.66 1066 1166 C1065.89 1166.74 1065.78 1167.47 1065.67 1168.23 C1064.96 1171.15 1064.02 1172.87 1062.31 1175.31 C1061.51 1176.47 1061.51 1176.47 1060.69 1177.66 C1058.61 1180.54 1056.48 1183.37 1054.3 1186.18 C1052.97 1188.04 1051.97 1189.93 1051 1192 C1050.34 1192 1049.68 1192 1049 1192 C1048.76 1192.71 1048.52 1193.42 1048.27 1194.16 C1046.81 1197.42 1044.98 1199.76 1042.69 1202.5 C1041.93 1203.42 1041.17 1204.34 1040.39 1205.28 C1038.02 1207.98 1035.64 1210.56 1033 1213 C1032.34 1213 1031.68 1213 1031 1213 C1030.34 1214.32 1029.68 1215.64 1029 1217 C1028.34 1217 1027.68 1217 1027 1217 C1026.74 1217.59 1026.49 1218.18 1026.22 1218.79 C1022.59 1225.36 1014.12 1230.83 1008 1235 C1007.34 1235 1006.68 1235 1006 1235 C1005.67 1235.99 1005.34 1236.98 1005 1238 C1003.68 1238.7 1002.35 1239.37 1001 1240 C1000.53 1240.47 1000.05 1240.95 999.56 1241.44 C997.59 1243.41 995.41 1244.58 993 1246 C991.73 1246.79 991.73 1246.79 990.43 1247.61 C989.59 1248.13 988.74 1248.65 987.88 1249.19 C986.6 1249.98 986.6 1249.98 985.3 1250.79 C983 1252 983 1252 980 1252 C979.67 1252.99 979.34 1253.98 979 1255 C976.69 1255.33 974.38 1255.66 972 1256 C971.67 1256.99 971.34 1257.98 971 1259 C969.26 1259.88 969.26 1259.88 967.12 1260.56 C964.29 1261.49 962.55 1262.3 960 1264 C958 1264.67 956 1265.33 954 1266 C953.01 1266.66 952.02 1267.32 951 1268 C948.98 1268.53 948.98 1268.53 946.75 1268.94 C943.66 1269.57 941.31 1270.3 938.38 1271.56 C934.84 1273.07 931.79 1273.46 928 1274 C926.97 1274.49 925.94 1274.99 924.88 1275.5 C919.64 1277.97 913.69 1277.75 908 1278 C908 1278.66 908 1279.32 908 1280 C608.36 1280 308.72 1280 0 1280 C0 1279.34 0 1278.68 0 1278 C-1.29 1277.94 -1.29 1277.94 -2.6 1277.89 C-9.13 1277.51 -14.02 1276.77 -20 1274 C-21.85 1273.63 -23.7 1273.3 -25.56 1273 C-29.89 1272.29 -33.13 1271.11 -37 1269 C-39.33 1268.33 -41.67 1267.66 -44 1267 C-44.99 1266.34 -45.98 1265.68 -47 1265 C-48.18 1264.67 -49.35 1264.34 -50.56 1264 C-54 1263 -54 1263 -56 1261 C-57.63 1260.27 -59.26 1259.54 -60.91 1258.86 C-63.27 1257.89 -65.61 1256.85 -67.94 1255.81 C-69.1 1255.3 -69.1 1255.3 -70.28 1254.77 C-70.85 1254.52 -71.41 1254.26 -72 1254 C-72 1253.34 -72 1252.68 -72 1252 C-72.78 1251.86 -73.57 1251.71 -74.38 1251.56 C-77 1251 -77 1251 -79 1250 C-79 1249.34 -79 1248.68 -79 1248 C-79.8 1247.81 -80.61 1247.63 -81.44 1247.44 C-85.61 1245.75 -88.51 1243.41 -91.95 1240.56 C-94.01 1238.82 -94.01 1238.82 -97 1238 C-98.02 1237.02 -99.02 1236.02 -100 1235 C-101.55 1233.73 -103.11 1232.49 -104.69 1231.25 C-111.07 1226.18 -117.49 1221.02 -123 1215 C-123 1214.34 -123 1213.68 -123 1213 C-123.59 1212.74 -124.18 1212.49 -124.79 1212.22 C-127.21 1210.88 -128.53 1209.54 -130.31 1207.44 C-130.91 1206.73 -131.51 1206.02 -132.13 1205.3 C-134.62 1202.24 -137.04 1199.13 -139.42 1195.98 C-140.85 1194.18 -142.38 1192.62 -144 1191 C-145 1189.33 -146 1187.67 -147 1186 C-147.95 1184.74 -148.91 1183.49 -149.88 1182.25 C-158 1171.55 -158 1171.55 -158 1166 C-158.99 1165.67 -159.98 1165.34 -161 1165 C-161.5 1161.54 -161.5 1161.54 -162 1158 C-162.99 1157.67 -163.98 1157.34 -165 1157 C-165.88 1155.26 -165.88 1155.26 -166.56 1153.12 C-167.49 1150.29 -168.3 1148.55 -170 1146 C-170.67 1143.67 -171.33 1141.33 -172 1139 C-172.99 1137.51 -172.99 1137.51 -174 1136 C-174.54 1134.58 -175.04 1133.14 -175.5 1131.69 C-176.34 1129.06 -177.19 1126.47 -178.12 1123.88 C-179 1121 -179 1121 -179.44 1117.56 C-179.83 1113.97 -179.83 1113.97 -181.5 1110.88 C-183.97 1105.64 -183.75 1099.69 -184 1094 C-184.66 1094 -185.32 1094 -186 1094 C-186 794.36 -186 494.72 -186 186 C-185.34 186 -184.68 186 -184 186 C-183.96 185.14 -183.93 184.29 -183.89 183.4 C-183.51 176.87 -182.77 171.98 -180 166 C-179.63 164.17 -179.3 162.34 -179 160.5 C-178.23 155.85 -177.04 152.24 -175 148 C-172.94 143.37 -171.22 138.76 -169.75 133.92 C-169 132 -169 132 -167 130 C-166.11 128.04 -166.11 128.04 -165.38 125.88 C-165.11 125.15 -164.85 124.43 -164.59 123.68 C-164.39 123.13 -164.2 122.57 -164 122 C-163.34 122 -162.68 122 -162 122 C-161.67 119.69 -161.34 117.38 -161 115 C-159.51 114.5 -159.51 114.5 -158 114 C-157.89 113.27 -157.79 112.53 -157.68 111.78 C-156.95 108.81 -155.94 107.05 -154.19 104.56 C-153.65 103.79 -153.11 103.01 -152.55 102.21 C-152.04 101.48 -151.53 100.75 -151 100 C-149.07 97.13 -147.17 94.3 -145.44 91.31 C-144 89 -144 89 -142.64 87.64 C-140.68 85.68 -139.02 83.56 -137.31 81.38 C-134.48 77.82 -131.61 74.31 -128.62 70.88 C-127.98 70.13 -127.33 69.38 -126.66 68.62 C-125 67 -125 67 -123 67 C-122.79 66.44 -122.59 65.89 -122.38 65.31 C-120.82 62.71 -118.92 61.14 -116.56 59.27 C-114.82 57.9 -114.82 57.9 -112.75 55.69 C-109.46 52.47 -105.92 49.69 -102.3 46.87 C-100.4 45.33 -98.72 43.73 -97 42 C-95.33 41 -93.67 40 -92 39 C-90.66 37.97 -89.33 36.92 -88 35.88 C-85.04 33.61 -82.82 32.24 -79 32 C-79 31.34 -79 30.68 -79 30 C-76.35 28.54 -75.11 28 -72 28 C-71.5 26.52 -71.5 26.52 -71 25 C-68.69 24.67 -66.38 24.34 -64 24 C-63.5 22.52 -63.5 22.52 -63 21 C-61.26 20.12 -61.26 20.12 -59.12 19.44 C-56.29 18.51 -54.55 17.7 -52 16 C-49.67 15.33 -47.33 14.67 -45 14 C-44.01 13.34 -43.02 12.68 -42 12 C-40.58 11.46 -39.14 10.96 -37.69 10.5 C-35.06 9.66 -32.47 8.81 -29.88 7.88 C-27 7 -27 7 -23.56 6.56 C-19.97 6.17 -19.97 6.17 -16.88 4.5 C-11.64 2.03 -5.69 2.25 0 2 C0 1.34 0 0.68 0 0 Z " fill="#FBFCFE" transform="translate(186,0)"/>
<path d="M0 0 C299.64 0 599.28 0 908 0 C908 0.66 908 1.32 908 2 C908.86 2.04 909.71 2.07 910.6 2.11 C917.13 2.49 922.02 3.23 928 6 C929.83 6.37 931.66 6.7 933.5 7 C938.14 7.76 941.74 9.04 946 11 C947.26 11.35 948.52 11.7 949.81 12.06 C953 13 953 13 955 15 C956.73 15.5 956.73 15.5 958.5 16 C962 17 962 17 964 19 C965.18 19.31 966.35 19.62 967.56 19.94 C968.7 20.29 969.83 20.64 971 21 C971.33 21.99 971.66 22.98 972 24 C975.46 24.49 975.46 24.49 979 25 C979.33 25.99 979.66 26.98 980 28 C980.73 28.11 981.47 28.21 982.22 28.32 C985.21 29.05 986.95 30.09 989.44 31.88 C992.09 33.73 994.51 35.25 997.44 36.69 C1000 38 1000 38 1002 41 C1004.05 42.19 1004.05 42.19 1006 43 C1006 43.66 1006 44.32 1006 45 C1006.71 45.24 1007.42 45.48 1008.16 45.73 C1011.42 47.19 1013.76 49.02 1016.5 51.31 C1017.42 52.07 1018.34 52.83 1019.28 53.61 C1021.98 55.98 1024.56 58.36 1027 61 C1027 61.66 1027 62.32 1027 63 C1028.32 63.66 1029.64 64.32 1031 65 C1031 65.66 1031 66.32 1031 67 C1031.59 67.26 1032.18 67.51 1032.79 67.78 C1039.36 71.41 1044.83 79.88 1049 86 C1049 86.66 1049 87.32 1049 88 C1049.99 88.33 1050.98 88.66 1052 89 C1053.04 90.64 1054.03 92.31 1055 94 C1055.95 95.26 1056.91 96.51 1057.88 97.75 C1066 108.45 1066 108.45 1066 114 C1066.99 114.33 1067.98 114.66 1069 115 C1069.33 117.31 1069.66 119.62 1070 122 C1070.99 122.33 1071.98 122.66 1073 123 C1073.88 124.74 1073.88 124.74 1074.56 126.88 C1075.49 129.71 1076.3 131.45 1078 134 C1078.67 136.33 1079.34 138.67 1080 141 C1081.43 144.47 1082.94 147.87 1084.56 151.25 C1086.29 155.2 1086.85 159.3 1087.47 163.55 C1087.89 166.24 1087.89 166.24 1090 169 C1090.41 170.9 1090.41 170.9 1090.63 173.01 C1090.72 173.77 1090.8 174.53 1090.89 175.31 C1091 176.49 1091 176.49 1091.12 177.69 C1091.21 178.48 1091.3 179.28 1091.39 180.1 C1091.6 182.07 1091.8 184.03 1092 186 C1092.66 186 1093.32 186 1094 186 C1094 485.64 1094 785.28 1094 1094 C1093.34 1094 1092.68 1094 1092 1094 C1091.88 1095.19 1091.76 1096.38 1091.63 1097.61 C1091.46 1099.18 1091.29 1100.75 1091.12 1102.31 C1091.01 1103.49 1091.01 1103.49 1090.89 1104.69 C1090.76 1105.83 1090.76 1105.83 1090.63 1106.99 C1090.52 1108.03 1090.52 1108.03 1090.41 1109.1 C1090 1111 1090 1111 1088 1114 C1087.46 1116.03 1086.99 1118.07 1086.56 1120.12 C1084.88 1127.74 1083.04 1134.32 1079 1141 C1078.33 1143.33 1077.66 1145.67 1077 1148 C1076.34 1148.66 1075.68 1149.32 1075 1150 C1074.11 1151.96 1074.11 1151.96 1073.38 1154.12 C1073.11 1154.85 1072.85 1155.57 1072.59 1156.32 C1072.39 1156.87 1072.2 1157.43 1072 1158 C1071.34 1158 1070.68 1158 1070 1158 C1069.67 1160.31 1069.34 1162.62 1069 1165 C1068.01 1165.33 1067.02 1165.66 1066 1166 C1065.89 1166.74 1065.78 1167.47 1065.67 1168.23 C1064.96 1171.15 1064.02 1172.87 1062.31 1175.31 C1061.51 1176.47 1061.51 1176.47 1060.69 1177.66 C1058.61 1180.54 1056.48 1183.37 1054.3 1186.18 C1052.97 1188.04 1051.97 1189.93 1051 1192 C1050.34 1192 1049.68 1192 1049 1192 C1048.76 1192.71 1048.52 1193.42 1048.27 1194.16 C1046.81 1197.42 1044.98 1199.76 1042.69 1202.5 C1041.93 1203.42 1041.17 1204.34 1040.39 1205.28 C1038.02 1207.98 1035.64 1210.56 1033 1213 C1032.34 1213 1031.68 1213 1031 1213 C1030.34 1214.32 1029.68 1215.64 1029 1217 C1028.34 1217 1027.68 1217 1027 1217 C1026.74 1217.59 1026.49 1218.18 1026.22 1218.79 C1022.59 1225.36 1014.12 1230.83 1008 1235 C1007.34 1235 1006.68 1235 1006 1235 C1005.67 1235.99 1005.34 1236.98 1005 1238 C1003.68 1238.7 1002.35 1239.37 1001 1240 C1000.53 1240.47 1000.05 1240.95 999.56 1241.44 C997.59 1243.41 995.41 1244.58 993 1246 C991.73 1246.79 991.73 1246.79 990.43 1247.61 C989.59 1248.13 988.74 1248.65 987.88 1249.19 C986.6 1249.98 986.6 1249.98 985.3 1250.79 C983 1252 983 1252 980 1252 C979.67 1252.99 979.34 1253.98 979 1255 C976.69 1255.33 974.38 1255.66 972 1256 C971.67 1256.99 971.34 1257.98 971 1259 C969.26 1259.88 969.26 1259.88 967.12 1260.56 C964.29 1261.49 962.55 1262.3 960 1264 C958 1264.67 956 1265.33 954 1266 C953.01 1266.66 952.02 1267.32 951 1268 C948.98 1268.53 948.98 1268.53 946.75 1268.94 C943.66 1269.57 941.31 1270.3 938.38 1271.56 C934.84 1273.07 931.79 1273.46 928 1274 C926.97 1274.49 925.94 1274.99 924.88 1275.5 C919.64 1277.97 913.69 1277.75 908 1278 C908 1278.66 908 1279.32 908 1280 C608.36 1280 308.72 1280 0 1280 C0 1279.34 0 1278.68 0 1278 C-1.29 1277.94 -1.29 1277.94 -2.6 1277.89 C-9.13 1277.51 -14.02 1276.77 -20 1274 C-21.85 1273.63 -23.7 1273.3 -25.56 1273 C-29.89 1272.29 -33.13 1271.11 -37 1269 C-39.33 1268.33 -41.67 1267.66 -44 1267 C-44.99 1266.34 -45.98 1265.68 -47 1265 C-48.18 1264.67 -49.35 1264.34 -50.56 1264 C-54 1263 -54 1263 -56 1261 C-57.63 1260.27 -59.26 1259.54 -60.91 1258.86 C-63.27 1257.89 -65.61 1256.85 -67.94 1255.81 C-69.1 1255.3 -69.1 1255.3 -70.28 1254.77 C-70.85 1254.52 -71.41 1254.26 -72 1254 C-72 1253.34 -72 1252.68 -72 1252 C-72.78 1251.86 -73.57 1251.71 -74.38 1251.56 C-77 1251 -77 1251 -79 1250 C-79 1249.34 -79 1248.68 -79 1248 C-79.8 1247.81 -80.61 1247.63 -81.44 1247.44 C-85.61 1245.75 -88.51 1243.41 -91.95 1240.56 C-94.01 1238.82 -94.01 1238.82 -97 1238 C-98.02 1237.02 -99.02 1236.02 -100 1235 C-101.55 1233.73 -103.11 1232.49 -104.69 1231.25 C-111.07 1226.18 -117.49 1221.02 -123 1215 C-123 1214.34 -123 1213.68 -123 1213 C-123.59 1212.74 -124.18 1212.49 -124.79 1212.22 C-127.21 1210.88 -128.53 1209.54 -130.31 1207.44 C-130.91 1206.73 -131.51 1206.02 -132.13 1205.3 C-134.62 1202.24 -137.04 1199.13 -139.42 1195.98 C-140.85 1194.18 -142.38 1192.62 -144 1191 C-145 1189.33 -146 1187.67 -147 1186 C-147.95 1184.74 -148.91 1183.49 -149.88 1182.25 C-158 1171.55 -158 1171.55 -158 1166 C-158.99 1165.67 -159.98 1165.34 -161 1165 C-161.5 1161.54 -161.5 1161.54 -162 1158 C-162.99 1157.67 -163.98 1157.34 -165 1157 C-165.88 1155.26 -165.88 1155.26 -166.56 1153.12 C-167.49 1150.29 -168.3 1148.55 -170 1146 C-170.67 1143.67 -171.33 1141.33 -172 1139 C-172.99 1137.51 -172.99 1137.51 -174 1136 C-174.54 1134.58 -175.04 1133.14 -175.5 1131.69 C-176.34 1129.06 -177.19 1126.47 -178.12 1123.88 C-179 1121 -179 1121 -179.44 1117.56 C-179.83 1113.97 -179.83 1113.97 -181.5 1110.88 C-183.97 1105.64 -183.75 1099.69 -184 1094 C-184.66 1094 -185.32 1094 -186 1094 C-186 794.36 -186 494.72 -186 186 C-185.34 186 -184.68 186 -184 186 C-183.96 185.14 -183.93 184.29 -183.89 183.4 C-183.51 176.87 -182.77 171.98 -180 166 C-179.63 164.17 -179.3 162.34 -179 160.5 C-178.23 155.85 -177.04 152.24 -175 148 C-172.94 143.37 -171.22 138.76 -169.75 133.92 C-169 132 -169 132 -167 130 C-166.11 128.04 -166.11 128.04 -165.38 125.88 C-165.11 125.15 -164.85 124.43 -164.59 123.68 C-164.39 123.13 -164.2 122.57 -164 122 C-163.34 122 -162.68 122 -162 122 C-161.67 119.69 -161.34 117.38 -161 115 C-159.51 114.5 -159.51 114.5 -158 114 C-157.89 113.27 -157.79 112.53 -157.68 111.78 C-156.95 108.81 -155.94 107.05 -154.19 104.56 C-153.65 103.79 -153.11 103.01 -152.55 102.21 C-152.04 101.48 -151.53 100.75 -151 100 C-149.07 97.13 -147.17 94.3 -145.44 91.31 C-144 89 -144 89 -142.64 87.64 C-140.68 85.68 -139.02 83.56 -137.31 81.38 C-134.48 77.82 -131.61 74.31 -128.62 70.88 C-127.98 70.13 -127.33 69.38 -126.66 68.62 C-125 67 -125 67 -123 67 C-122.79 66.44 -122.59 65.89 -122.38 65.31 C-120.82 62.71 -118.92 61.14 -116.56 59.27 C-114.82 57.9 -114.82 57.9 -112.75 55.69 C-109.46 52.47 -105.92 49.69 -102.3 46.87 C-100.4 45.33 -98.72 43.73 -97 42 C-95.33 41 -93.67 40 -92 39 C-90.66 37.97 -89.33 36.92 -88 35.88 C-85.04 33.61 -82.82 32.24 -79 32 C-79 31.34 -79 30.68 -79 30 C-76.35 28.54 -75.11 28 -72 28 C-71.5 26.52 -71.5 26.52 -71 25 C-68.69 24.67 -66.38 24.34 -64 24 C-63.5 22.52 -63.5 22.52 -63 21 C-61.26 20.12 -61.26 20.12 -59.12 19.44 C-56.29 18.51 -54.55 17.7 -52 16 C-49.67 15.33 -47.33 14.67 -45 14 C-44.01 13.34 -43.02 12.68 -42 12 C-40.58 11.46 -39.14 10.96 -37.69 10.5 C-35.06 9.66 -32.47 8.81 -29.88 7.88 C-27 7 -27 7 -23.56 6.56 C-19.97 6.17 -19.97 6.17 -16.88 4.5 C-11.64 2.03 -5.69 2.25 0 2 C0 1.34 0 0.68 0 0 Z M40.18 95.35 C38.77 95.39 37.36 95.42 35.94 95.46 C16.72 95.94 -5.54 99.2 -22 110 C-24.49 111.5 -26.99 112.99 -29.5 114.46 C-33.92 117.07 -38.12 119.63 -42 123 C-42.82 123.68 -42.82 123.68 -43.65 124.38 C-48.03 128.09 -52.17 132.03 -56.25 136.06 C-56.76 136.56 -57.26 137.05 -57.79 137.56 C-61.02 140.79 -63.55 144.12 -66 148 C-66.85 149.19 -67.7 150.38 -68.56 151.56 C-76.53 162.69 -81.77 175.45 -85.69 188.5 C-85.89 189.16 -86.09 189.83 -86.3 190.51 C-90.34 204.44 -90.43 218.32 -90.62 232.71 C-90.65 235.14 -90.69 237.57 -90.73 240 C-91.17 269.68 -91.14 299.37 -91.13 329.05 C-91.13 337.82 -91.13 346.59 -91.13 355.37 C-91.14 372.55 -91.14 389.73 -91.14 406.91 C-91.13 421.96 -91.13 437.01 -91.13 452.06 C-91.13 453.07 -91.13 454.07 -91.13 455.11 C-91.13 459.2 -91.13 463.28 -91.14 467.37 C-91.14 505.57 -91.14 543.76 -91.13 581.96 C-91.13 615.71 -91.13 649.46 -91.13 683.21 C-91.14 721.32 -91.14 759.44 -91.13 797.55 C-91.13 801.63 -91.13 805.72 -91.13 809.8 C-91.13 810.8 -91.13 811.81 -91.13 812.85 C-91.13 827.85 -91.13 842.86 -91.14 857.87 C-91.14 874.99 -91.14 892.11 -91.13 909.24 C-91.13 917.93 -91.13 926.63 -91.13 935.33 C-91.14 956.11 -91.11 976.89 -91.01 997.67 C-91 1000.06 -90.99 1002.45 -90.98 1004.84 C-90.94 1013.85 -90.89 1022.86 -90.81 1031.87 C-90.77 1035.73 -90.74 1039.58 -90.72 1043.43 C-90.55 1083.93 -81.67 1117.84 -52.37 1147.12 C-45.54 1153.72 -38.03 1158.98 -30 1164 C-29.32 1164.44 -28.63 1164.87 -27.93 1165.32 C2.39 1184.57 36.25 1184.16 70.9 1184.13 C75.14 1184.13 79.38 1184.14 83.61 1184.14 C91.03 1184.15 98.45 1184.15 105.86 1184.15 C116.89 1184.14 127.92 1184.15 138.94 1184.15 C159.79 1184.16 180.63 1184.17 201.48 1184.17 C217.58 1184.17 233.68 1184.17 249.78 1184.17 C254.41 1184.17 259.05 1184.17 263.69 1184.18 C264.85 1184.18 266 1184.18 267.19 1184.18 C299.61 1184.18 332.04 1184.19 364.47 1184.19 C365.69 1184.19 366.91 1184.19 368.17 1184.19 C374.36 1184.19 380.56 1184.19 386.75 1184.19 C387.98 1184.19 389.21 1184.19 390.48 1184.19 C392.96 1184.19 395.45 1184.19 397.94 1184.19 C436.63 1184.18 475.32 1184.19 514.01 1184.21 C557.51 1184.22 601 1184.23 644.5 1184.23 C649.14 1184.23 653.78 1184.23 658.42 1184.23 C659.56 1184.23 660.71 1184.23 661.88 1184.23 C680.24 1184.23 698.61 1184.24 716.97 1184.24 C735.43 1184.25 753.89 1184.25 772.36 1184.25 C783.31 1184.24 794.27 1184.24 805.23 1184.25 C812.56 1184.26 819.89 1184.26 827.23 1184.25 C831.4 1184.25 835.56 1184.25 839.73 1184.26 C882.94 1184.4 882.94 1184.4 924 1172 C924.66 1171.34 925.32 1170.68 926 1170 C927.68 1169.27 929.35 1168.55 931.05 1167.88 C946.63 1160.85 967.32 1144.07 974.25 1128.12 C974.5 1127.42 974.74 1126.72 975 1126 C975.66 1126 976.32 1126 977 1126 C980.54 1121.5 982.87 1116.28 985 1111 C985.62 1109.67 986.25 1108.33 986.88 1107 C995.95 1086.46 997.49 1066.84 997.68 1044.69 C997.7 1042.72 997.73 1040.75 997.75 1038.78 C998.16 1007.11 998.14 975.44 998.13 943.78 C998.13 934.77 998.13 925.77 998.13 916.76 C998.14 899.13 998.14 881.51 998.14 863.88 C998.13 848.46 998.13 833.04 998.13 817.61 C998.13 816.58 998.13 815.55 998.13 814.49 C998.13 810.3 998.13 806.11 998.14 801.93 C998.14 762.82 998.14 723.71 998.13 684.6 C998.13 649.99 998.13 615.38 998.13 580.77 C998.14 541.7 998.14 502.64 998.13 463.58 C998.13 459.4 998.13 455.22 998.13 451.05 C998.13 450.02 998.13 448.99 998.13 447.93 C998.13 432.53 998.13 417.12 998.14 401.72 C998.14 384.18 998.14 366.64 998.13 349.1 C998.13 340.18 998.13 331.26 998.13 322.34 C998.14 301.23 998.11 280.11 998 259 C997.99 257.72 997.99 256.44 997.98 255.12 C997.94 248.02 997.88 240.91 997.78 233.81 C997.76 231.76 997.74 229.7 997.72 227.65 C997.6 210.64 995.81 193.77 989 178 C988.7 177.29 988.41 176.57 988.11 175.84 C987.12 173.53 986.07 171.27 985 169 C984.52 167.94 984.04 166.88 983.54 165.79 C979.36 156.91 974.26 149.53 968 142 C967.41 141.28 966.83 140.57 966.23 139.83 C964.54 137.83 962.79 135.91 961 134 C959.71 132.6 959.71 132.6 958.39 131.16 C951.32 123.66 943.82 118.26 935 113 C933.69 112.11 932.37 111.21 931.06 110.31 C901.83 92.37 865.14 94.84 832.32 94.87 C828.2 94.87 824.08 94.87 819.97 94.87 C812.77 94.86 805.58 94.86 798.38 94.87 C787.68 94.87 776.98 94.87 766.28 94.87 C747.15 94.86 728.03 94.86 708.91 94.86 C692.17 94.87 675.43 94.87 658.69 94.87 C657.57 94.87 656.46 94.87 655.32 94.87 C650.8 94.87 646.28 94.87 641.77 94.86 C599.42 94.86 557.08 94.86 514.74 94.87 C477.18 94.87 439.63 94.87 402.07 94.87 C359.82 94.86 317.57 94.86 275.32 94.87 C270.81 94.87 266.3 94.87 261.79 94.87 C260.67 94.87 259.56 94.87 258.42 94.87 C241.7 94.87 224.99 94.87 208.27 94.86 C189.24 94.86 170.21 94.86 151.18 94.87 C140.55 94.87 129.92 94.87 119.29 94.87 C112.16 94.86 105.04 94.87 97.91 94.87 C93.87 94.87 89.83 94.87 85.78 94.87 C70.58 94.86 55.38 94.93 40.18 95.35 Z " fill="#000F9C" transform="translate(186,0)"/>
<path d="M0 0 C0.95 -0 1.9 -0.01 2.89 -0.01 C3.92 -0.01 4.96 -0 6.03 -0 C7.14 -0 8.25 -0 9.4 -0.01 C13.13 -0.01 16.86 -0.01 20.59 -0 C23.26 -0 25.93 -0.01 28.61 -0.01 C35.14 -0.01 41.66 -0.01 48.19 -0.01 C53.53 -0.01 58.86 -0.01 64.2 -0.01 C64.96 -0.01 65.73 -0.01 66.51 -0.01 C68.06 -0.01 69.61 -0.01 71.16 -0.01 C85.72 -0.01 100.28 -0.01 114.84 -0 C127.21 0 139.57 0 151.93 -0 C166.36 -0.01 180.79 -0.01 195.21 -0.01 C196.77 -0.01 198.33 -0.01 199.89 -0.01 C200.66 -0.01 201.43 -0.01 202.22 -0.01 C207.49 -0.01 212.76 -0.01 218.04 -0.01 C248.2 -0.02 278.36 0.07 308.52 0.58 C309.72 0.6 310.93 0.62 312.18 0.64 C379.12 1.78 379.12 1.78 395.16 11.13 C396.01 11.61 396.86 12.09 397.73 12.58 C413.92 22.28 428.01 36.26 438.16 52.13 C438.69 52.95 439.23 53.77 439.78 54.62 C452.69 75.25 451.34 98.77 451.72 122.28 C451.74 123.52 451.76 124.77 451.78 126.05 C452.31 158.35 452.31 190.66 452.3 222.96 C452.29 229.09 452.29 235.21 452.29 241.34 C452.3 242.67 452.3 242.67 452.3 244.03 C452.3 245.84 452.3 247.65 452.3 249.45 C452.3 266.21 452.3 282.96 452.29 299.72 C452.29 313.93 452.29 328.15 452.29 342.37 C452.3 359.09 452.3 375.8 452.3 392.52 C452.3 394.32 452.3 396.11 452.29 397.91 C452.29 398.8 452.29 399.68 452.29 400.59 C452.29 406.67 452.3 412.76 452.3 418.84 C452.31 450.11 452.31 481.38 451.83 512.65 C451.8 515.05 451.76 517.46 451.73 519.86 C451.57 531.69 451.19 543.46 450.26 555.25 C450.15 556.72 450.15 556.72 450.03 558.22 C448 581.65 431.95 599.85 415.16 615.13 C403.54 624.65 390.95 632.77 376.91 638.19 C371.59 640.26 367.41 642.25 364.16 647.13 C364.51 650.66 365.59 653.28 367.38 656.31 C368.06 657.47 368.06 657.47 368.75 658.66 C369.24 659.47 369.72 660.29 370.22 661.13 C370.72 661.97 371.22 662.82 371.74 663.69 C373.2 666.18 374.68 668.65 376.16 671.13 C376.73 672.07 376.73 672.07 377.3 673.04 C381.24 679.62 385.4 686.05 389.68 692.42 C393.97 698.81 398.18 705.25 402.39 711.69 C408.88 721.6 415.37 731.5 421.96 741.33 C424.37 744.93 426.76 748.53 429.16 752.13 C430.18 753.66 431.2 755.19 432.22 756.72 C461.16 800.13 461.16 800.13 463.04 802.95 C464.69 805.42 466.35 807.9 468 810.37 C473.43 818.48 478.81 826.62 484.04 834.86 C485.51 837.11 486.98 839.32 488.53 841.52 C489.27 842.58 490.02 843.65 490.79 844.75 C491.46 845.69 492.13 846.63 492.83 847.6 C494.16 850.13 494.16 850.13 493.74 852.28 C493.55 852.89 493.36 853.5 493.16 854.13 C485.57 854.15 477.97 854.17 470.38 854.18 C467.8 854.19 465.22 854.19 462.64 854.2 C458.91 854.21 455.19 854.22 451.46 854.22 C450.33 854.23 449.19 854.23 448.02 854.24 C444.73 854.24 441.45 854.2 438.16 854.13 C437 854.11 435.85 854.09 434.65 854.07 C425.1 853.68 425.1 853.68 421.64 850.99 C418.98 847.92 416.64 844.79 414.48 841.36 C413.61 840.02 412.74 838.68 411.87 837.34 C411.43 836.65 410.98 835.95 410.52 835.24 C408.27 831.75 405.96 828.29 403.65 824.83 C402.72 823.42 401.79 822.02 400.85 820.61 C400.39 819.92 399.92 819.22 399.45 818.5 C398.5 817.08 397.56 815.65 396.61 814.23 C391.57 806.62 386.46 799.08 381.04 791.73 C377.68 787.08 374.56 782.29 371.41 777.5 C366.17 769.58 360.83 761.74 355.32 754 C352.63 750.23 350 746.44 347.44 742.58 C346.63 741.37 345.82 740.16 345 738.96 C342.58 735.4 340.41 731.79 338.35 728 C337.33 726.25 336.31 724.5 335.29 722.75 C334.87 721.91 334.46 721.07 334.03 720.21 C332.32 717.37 330.93 715.98 328.16 714.13 C325.39 713.68 322.95 713.47 320.16 713.41 C319.3 713.38 318.44 713.35 317.56 713.32 C303.16 712.89 288.74 712.91 274.33 712.86 C269.96 712.84 265.6 712.81 261.23 712.79 C248.3 712.72 235.37 712.66 222.44 712.6 C212.34 712.55 202.24 712.5 192.14 712.45 C186.95 712.42 181.77 712.4 176.58 712.38 C173.37 712.36 170.16 712.35 166.95 712.33 C165.46 712.32 163.97 712.31 162.47 712.31 C160.45 712.3 158.42 712.29 156.39 712.28 C155.25 712.27 154.11 712.27 152.94 712.26 C150.16 712.13 150.16 712.13 147.16 711.13 C145.01 711.03 142.87 711 140.72 711 C140.07 710.99 139.42 710.99 138.75 710.99 C136.61 710.99 134.46 710.99 132.32 710.99 C130.83 710.99 129.34 710.99 127.85 710.99 C124.72 710.99 121.6 710.99 118.47 711 C114.47 711 110.46 711 106.46 710.99 C103.38 710.99 100.3 710.99 97.23 710.99 C95.75 710.99 94.27 710.99 92.79 710.99 C90.73 710.99 88.67 710.99 86.6 711 C84.84 711 84.84 711 83.05 711 C80.09 711 80.09 711 77.16 712.13 C74.71 712.26 72.28 712.33 69.83 712.37 C68.35 712.4 66.88 712.44 65.41 712.47 C63.1 712.52 60.79 712.56 58.47 712.6 C56.24 712.64 54 712.69 51.76 712.75 C50.73 712.76 50.73 712.76 49.68 712.77 C45.76 712.87 42.65 713.29 39.16 715.13 C37.28 717.22 35.63 719.25 33.97 721.5 C33.01 722.77 32.05 724.04 31.08 725.31 C30.6 725.94 30.11 726.58 29.62 727.24 C26.66 731.07 23.49 734.73 20.35 738.41 C18.09 741.21 16.13 744.11 14.16 747.13 C12.92 748.84 11.67 750.55 10.41 752.25 C6.82 757.16 3.43 762.17 0.09 767.24 C-1.64 769.83 -3.41 772.39 -5.21 774.94 C-8.16 779.12 -11.01 783.36 -13.84 787.63 C-18.31 794.36 -22.9 800.99 -27.58 807.57 C-31.25 812.76 -34.71 818.04 -38.1 823.42 C-40.26 826.79 -42.56 830.04 -44.88 833.31 C-46.41 835.5 -47.89 837.71 -49.36 839.95 C-49.8 840.62 -50.24 841.28 -50.7 841.97 C-51.56 843.3 -52.43 844.62 -53.29 845.95 C-53.69 846.56 -54.09 847.17 -54.51 847.81 C-54.86 848.35 -55.21 848.89 -55.58 849.45 C-59.68 854.89 -59.68 854.89 -63.26 855.61 C-64.16 855.61 -65.06 855.6 -65.98 855.6 C-67.01 855.6 -68.03 855.6 -69.09 855.6 C-70.19 855.59 -71.3 855.57 -72.44 855.55 C-73.58 855.55 -74.73 855.55 -75.91 855.54 C-79.57 855.53 -83.24 855.48 -86.9 855.44 C-89.34 855.43 -91.79 855.42 -94.23 855.41 C-96.59 855.4 -98.95 855.38 -101.31 855.36 C-102.4 855.36 -103.49 855.35 -104.61 855.34 C-123.6 855.11 -123.6 855.11 -128.84 852.13 C-128.34 847.54 -127.28 844.81 -124.53 841.13 C-123.9 840.27 -123.27 839.41 -122.62 838.53 C-122.03 837.74 -121.45 836.94 -120.84 836.13 C-118.77 833.19 -116.99 830.57 -115.84 827.13 C-114.85 826.47 -113.86 825.81 -112.84 825.13 C-111.63 822.57 -111.63 822.57 -110.84 820.13 C-110.18 820.13 -109.52 820.13 -108.84 820.13 C-108.44 818.73 -108.44 818.73 -108.03 817.31 C-106.87 814.21 -106.17 813.27 -103.84 811.13 C-102.81 809.48 -101.82 807.81 -100.84 806.13 C-98.72 802.88 -96.54 799.7 -94.28 796.56 C-92.88 794.63 -91.61 792.74 -90.4 790.69 C-88.99 788.37 -87.48 786.28 -85.84 784.13 C-83.63 781.21 -81.69 778.28 -79.84 775.13 C-78.29 772.81 -76.72 770.51 -75.14 768.21 C-73.69 766.07 -73.69 766.07 -72.84 763.13 C-71.84 762.12 -70.84 761.12 -69.84 760.13 C-68.74 758.5 -67.68 756.85 -66.65 755.19 C-61.42 746.84 -56.06 738.62 -50.08 730.79 C-48.5 728.66 -47.17 726.42 -45.84 724.13 C-44.51 722.13 -43.17 720.13 -41.84 718.13 C-41.09 716.92 -40.34 715.71 -39.59 714.5 C-35.59 708.07 -31.32 701.82 -27.1 695.53 C-24.14 691.13 -24.14 691.13 -21.34 686.63 C-19.95 684.31 -18.48 682.11 -16.96 679.88 C-14.46 676.15 -12.26 672.33 -10.13 668.38 C-8.77 666.01 -7.27 663.8 -5.71 661.56 C-2.95 657.42 -0.87 654.04 0.16 649.13 C-1.36 644.7 -4.47 642.07 -8.53 639.94 C-10.67 638.99 -12.82 638.13 -15.01 637.31 C-29.04 632.03 -40.92 624.3 -51.84 614.13 C-53.27 612.81 -53.27 612.81 -54.74 611.47 C-65.9 600.83 -73.81 588.49 -80.53 574.69 C-81.48 572.83 -82.5 571.01 -83.57 569.22 C-89.01 559.58 -89.83 551.77 -89.69 540.84 C-89.69 539.13 -89.7 537.42 -89.71 535.72 C-89.73 531.06 -89.7 526.4 -89.67 521.74 C-89.64 516.71 -89.65 511.67 -89.66 506.63 C-89.67 496.77 -89.64 486.91 -89.6 477.05 C-89.55 465.53 -89.54 454.02 -89.54 442.51 C-89.53 421.93 -89.48 401.35 -89.42 380.78 C-89.36 360.88 -89.32 340.98 -89.3 321.08 C-89.3 319.25 -89.3 319.25 -89.3 317.38 C-89.29 312.46 -89.28 307.54 -89.28 302.63 C-89.26 280.14 -89.22 257.66 -89.18 235.17 C-89.18 234.04 -89.18 232.91 -89.18 231.74 C-89.15 217.52 -89.12 203.3 -89.08 189.08 C-89.07 185.14 -89.06 181.2 -89.05 177.26 C-89.01 153.86 -88.69 130.51 -87.84 107.13 C-87.8 106.15 -87.77 105.18 -87.73 104.18 C-87.11 87.59 -84.18 72.68 -76.84 57.75 C-76.49 57.05 -76.15 56.34 -75.8 55.62 C-74.11 52.29 -72.51 49.7 -69.84 47.13 C-68.63 45.45 -67.45 43.76 -66.28 42.06 C-57.02 29.23 -45.12 19.63 -31.34 12.06 C-30.42 11.56 -29.5 11.05 -28.56 10.53 C-25.84 9.13 -25.84 9.13 -23.12 8.07 C-20.69 7.24 -20.69 7.24 -18.84 5.13 C-16.84 4.45 -14.84 3.78 -12.84 3.13 C-11.85 2.47 -10.86 1.81 -9.84 1.13 C-6.52 0.27 -3.42 0 0 0 Z " fill="#000F9D" transform="translate(456.8389148712158,211.87415885925293)"/>
<path d="M0 0 C4.65 -0 9.29 -0.01 13.94 -0.01 C122.62 -0.11 122.62 -0.11 144.63 18.04 C152.12 25.73 157.51 35.43 159.28 46 C159.4 46.67 159.52 47.34 159.65 48.02 C163.95 72.31 162.94 97.54 162.66 122.12 C162.64 123.27 162.64 123.27 162.63 124.45 C162.57 129.05 162.5 133.65 162.39 138.25 C162.36 139.68 162.33 141.11 162.31 142.54 C162.07 156.64 161.03 169.09 151.66 180.12 C150.95 180.98 150.24 181.83 149.52 182.71 C144.73 188.27 139.67 192.93 133.66 197.12 C132.6 197.86 131.55 198.61 130.47 199.37 C120.98 204.54 108.04 205.13 97.41 205.42 C96.72 205.44 96.04 205.46 95.33 205.48 C93.06 205.54 90.79 205.6 88.52 205.66 C86.88 205.7 85.24 205.74 83.6 205.79 C78.2 205.93 72.8 206.06 67.41 206.18 C66.47 206.21 65.54 206.23 64.58 206.25 C2.44 207.72 -59.7 207.33 -121.84 206.68 C-122.8 206.67 -123.76 206.67 -124.75 206.65 C-142.87 206.47 -161 206.28 -179.12 205.67 C-180.19 205.64 -181.26 205.6 -182.36 205.57 C-227.17 203.88 -227.17 203.88 -241.62 188.41 C-250.9 176.05 -257.46 159.91 -257.47 144.46 C-257.48 143.15 -257.48 141.84 -257.48 140.49 C-257.48 139.06 -257.48 137.64 -257.48 136.22 C-257.48 134.73 -257.48 133.24 -257.48 131.76 C-257.48 128.64 -257.48 125.52 -257.47 122.4 C-257.47 118.47 -257.47 114.54 -257.48 110.61 C-257.51 83 -257.51 83 -256.91 69.5 C-256.88 68.67 -256.84 67.84 -256.8 66.98 C-255.9 49.71 -253.1 32.85 -240.34 20.12 C-239.68 20.12 -239.02 20.12 -238.34 20.12 C-238.01 19.13 -237.68 18.14 -237.34 17.12 C-235.05 15.18 -235.05 15.18 -232.16 13.12 C-231.21 12.44 -230.27 11.76 -229.3 11.06 C-223.56 7.3 -218.52 5.47 -211.8 4.47 C-210.98 4.35 -210.15 4.22 -209.3 4.09 C-199.55 2.72 -189.8 2.59 -179.97 2.5 C-176.36 2.45 -172.74 2.39 -169.13 2.33 C-168.23 2.32 -167.33 2.31 -166.4 2.29 C-160.45 2.19 -154.53 1.95 -148.6 1.63 C-134.43 0.89 -120.24 0.76 -106.06 0.59 C-103.56 0.56 -101.06 0.53 -98.57 0.5 C-65.71 0.09 -32.86 0.01 0 0 Z " fill="#FBFCFE" transform="translate(686.3436436653137,302.8778865933418)"/>
<path d="M0 0 C9.24 7.49 16.82 16.84 21.36 27.91 C21.73 28.81 22.1 29.7 22.48 30.63 C24.92 37.36 25.72 43.56 25.73 50.66 C25.73 51.44 25.73 52.22 25.74 53.02 C25.47 66.79 25.47 66.79 21.36 70.91 C20.98 71.9 20.61 72.89 20.23 73.91 C15.2 85.86 3.72 94.93 -7.85 100.21 C-10.73 101.33 -13.65 102.15 -16.64 102.91 C-17.7 103.28 -18.75 103.65 -19.83 104.04 C-33.83 107.25 -47.26 102.99 -59.47 96.02 C-72.92 87.09 -81.99 75.06 -85.23 59.01 C-87.15 44.6 -85.53 27.94 -76.64 15.91 C-58.36 -7.05 -25.74 -18.34 0 0 Z " fill="#FBFCFE" transform="translate(824.64453125,598.08984375)"/>
<path d="M0 0 C12.02 9.02 22.21 19.04 25.05 34.33 C25.38 36.77 25.64 39.2 25.86 41.64 C25.98 42.95 25.98 42.95 26.1 44.28 C27.18 57.54 26.83 68.52 18.03 79.14 C11.63 86.53 4.63 92.37 -3.39 97.96 C-4.07 98.5 -4.76 99.04 -5.46 99.6 C-14.24 105.78 -27.24 106.03 -37.45 104.5 C-52.9 101.08 -66.61 91.25 -75.57 78.25 C-83.42 65.3 -86.56 50.69 -83.2 35.83 C-80.65 26.71 -76.32 19.28 -70.39 11.96 C-69.77 11.14 -69.15 10.32 -68.5 9.48 C-51.74 -10.54 -21.66 -13.98 0 0 Z " fill="#FBFCFE" transform="translate(512.390625,598.04296875)"/>
<path d="M0 0 C0 0.99 0 1.98 0 3 C-11.12 3.2 -22.25 3.39 -33.38 3.56 C-34.2 3.58 -35.02 3.59 -35.87 3.6 C-64.94 4.04 -93.94 3.91 -123 3 C-123 2.34 -123 1.68 -123 1 C-110.56 0.83 -98.13 0.66 -85.69 0.5 C-84.77 0.49 -83.86 0.48 -82.92 0.46 C-55.28 0.11 -27.64 -0.16 0 0 Z " fill="#D5D7F3" transform="translate(672,303)"/>
</svg>
